# xmcd
#
# Track frame offsets: 
#        150
#        13465
#        32063
#        47663
#        66024
#        83582
#        99924
#        112874
#        128305
#        142630
#        155249
#        169495
#        188223
#        204256
#        216713
#        227640
#        245837
#        262531
#        280898
#        295076
#
# Disc length: 4087 seconds
#
# Revision: 0
# Processed by: cddbd v1.5.2PL0 Copyright (c) Steve Scherf et al.
# Submitted via: ExactAudioCopyFreeDBPlugin 1.0
#
DISCID=150ff514
DTITLE=Various Artist - Country Music Festival Cd2
DYEAR=2013
DGENRE=Country
TTITLE0=Truck Stop - Der wilde,wilde Westen
TTITLE1=High south - Now
TTITLE2=Bellamy Brothers and Gölä - Let your love flow
TTITLE3=Shania Twain - Forever and for always
TTITLE4=BR549 - Too lazy to work, Too nervous to steal
TTITLE5=The Krüger Brothers - Lonesome road blues
TTITLE6=Flaco Jimenez - Marina
TTITLE7=Toni Vescoli - El parasito
TTITLE8=Rhonda Vincent - All american bluegrass girl
TTITLE9=Tinkabelle - The man i need
TTITLE10=Rosanne Cash - Tennessee flat top box
TTITLE11=Dolly Parton and Kenny Rogers - Islands in the stream
TTITLE12=Tracy Lawrence - Stars over texas
TTITLE13=Swiss Highwaymen - Big River
TTITLE14=Tanya Tucker - Feel Right
TTITLE15=Marco Gottardi -  Carnival of dreams
TTITLE16=Pam Tillis - Blue rose is
TTITLE17=Trisha Yearwood - She's in love with the boy
TTITLE18=Connie Smith - how long
TTITLE19=Country Sisters - dae to go bare
EXTD=
EXTT0=
EXTT1=
EXTT2=
EXTT3=
EXTT4=
EXTT5=
EXTT6=
EXTT7=
EXTT8=
EXTT9=
EXTT10=
EXTT11=
EXTT12=
EXTT13=
EXTT14=
EXTT15=
EXTT16=
EXTT17=
EXTT18=
EXTT19=
PLAYORDER=
